# xmcd CD database file
#
# Track frame offsets:
#	150
#	15774
#	32510
#	40745
#	50152
#	61477
#	78692
#	93292
#	104834
#	118978
#	137219
#	152865
#	166193
#	177907
#	196227
#	218670
#	230398
#	239233
#	251803
#	261333
#
# Disc length: 3717 seconds
#
# Revision: 0
# Processed by: cddbd v1.5.2PL0 Copyright (c) Steve Scherf et al.
# Submitted via: CDex 1.70beta2
#
DISCID=200e8314
DTITLE=Morrissey, Joan - Cdn. - Scarborough, ON - Memories
DYEAR=1980
DGENRE=Country
TTITLE0=Thank God wer'e surrounded by Water
TTITLE1=CN Bus
TTITLE2=Silver Threads and Golden Needles
TTITLE3=Heading Eastbound
TTITLE4=I Fall to Pieces
TTITLE5=Don't come where we're to
TTITLE6=The Mobile Goat
TTITLE7=Anti Federation Song
TTITLE8=The Teacher's Song
TTITLE9=My Ding A Ling
TTITLE10=The Boarding House on Federation Square
TTITLE11=The William Carson
TTITLE12=The Baby Bonus Song
TTITLE13=Seven Old Ladies
TTITLE14=Seven Drunken Nights
TTITLE15=Kawliga
TTITLE16=The Thrashing Machine
TTITLE17=Green Green Grass of Home
TTITLE18=Over the Hill
TTITLE19=The Money Rolls In
EXTD=YEAR: 1980
EXTT0=
EXTT1=
EXTT2=
EXTT3=
EXTT4=
EXTT5=
EXTT6=
EXTT7=
EXTT8=
EXTT9=
EXTT10=
EXTT11=
EXTT12=
EXTT13=
EXTT14=
EXTT15=
EXTT16=
EXTT17=
EXTT18=
EXTT19=
PLAYORDER=
